# xmcd
#
# Track frame offsets:
#	150
#	2948
#	16707
#	36325
#	49748
#	59366
#	78671
#	90415
#	104590
#	116686
#	129656
#	141924
#	151456
#	166009
#	176576
#	182237
#
# Disc length: 2845 seconds
#
# Revision: 0
# Processed by: cddbd v1.4PL0 Copyright (c) Steve Scherf et al.
# Submitted via: dBpowerAMP V4.0
#
DISCID=d30b1b10
DTITLE=Cowboy Bill Martin - How's Your Mamma
DYEAR=1900
DGENRE=Comedy
TTITLE0=Introduction
TTITLE1=Cowboy Bill Meets Marilyn Manson
TTITLE2=Starched Jeans, Animal Rights and Real Cowboys
TTITLE3=Grandma, Pappa and Gettin' Strait
TTITLE4=Oklahoma, Six Flags and The Death Penalty
TTITLE5=Speed Limit 52
TTITLE6="How's Your Mamma?"
TTITLE7=Switches and Nick Knacks
TTITLE8=Heaven, Pet Tigers and Bactine
TTITLE9=Sneaking Out and Sneaking In
TTITLE10=Marriage? Stick a Tack in My Head!
TTITLE11=Spoon or The Couch
TTITLE12=You Might Want To Wear A Dress
TTITLE13=Survey Says, "You Don't Listen To Me"
TTITLE14=Love is Not Like The Movies
TTITLE15=Jesus and The 66 Ford
EXTD=
EXTT0=
EXTT1=
EXTT2=
EXTT3=
EXTT4=
EXTT5=
EXTT6=
EXTT7=
EXTT8=
EXTT9=
EXTT10=
EXTT11=
EXTT12=
EXTT13=
EXTT14=
EXTT15=
PLAYORDER=
